<?xml version="1.0" encoding="UTF-8"?>
<svg width="135px" height="63px" viewBox="0 0 135 63" version="1.1" xmlns="http://www.w3.org/2000/svg" xmlns:xlink="http://www.w3.org/1999/xlink">
    <!-- Generator: Sketch 50.2 (55047) - http://www.bohemiancoding.com/sketch -->
    <title>SW Logo</title>
    <desc>Created with Sketch.</desc>
    <defs></defs>
    <g id="Page-1" stroke="none" stroke-width="1" fill="none" fill-rule="evenodd">
        <g id="Home" transform="translate(-23.000000, -26.000000)" fill="#1A1919">
            <g id="SW-Logo" transform="translate(23.000000, 26.000000)">
                <path d="M0,19.9976281 L0,30 C0,30 25.4778932,30 28.8287714,30 C32.1796496,30 36.4615437,26.8556293 36.4615437,21.6540164 C36.4615437,19.5611954 37.2499857,18.1973435 34.827007,15.4301075 L31.1387816,10.9954143 C29.0258819,8.99509804 31.3912077,8.99509804 33.165202,8.99509804 C34.1515336,8.99509804 45.3377482,8.99509804 45.3377482,8.99509804 L45.3377482,30 L54.9907082,30 L54.9907082,8.99509804 L68,8.99509804 L68,0 L25.8721142,0 C20.7472417,0 18.240121,4.99446553 18.3811368,7.59487666 C18.5229317,10.1952878 18.9942828,13.4669513 23.2543623,17.397217 C27.1389191,20.9811828 21.3300031,19.9976281 20.7472417,19.9976281 C17.7898053,19.9976281 0,19.9976281 0,19.9976281" id="Fill-2"></path>
                <path d="M86.1228658,0 L71.30561,0 L63,30 L72.2433641,30 L73.7437706,25.7993359 L83.4971543,25.7993359 L84.9441867,30 L94,30 L86.1228658,0 Z M75.8068296,18.5974067 L78.9951935,7.59487666 L81.9967478,18.5974067 L75.8068296,18.5974067 Z" id="Fill-3"></path>
                <path d="M122.36639,19.9976281 C118.717422,19.9976281 118.717422,18.5974067 118.717422,18.5974067 C121.844133,18.5974067 124.617105,13.852783 124.617105,8.99509804 C124.617105,4.13820367 120.061779,0 116.412811,0 C112.763085,0 96,0 96,0 L96,30 L106.371509,30 L106.371509,19.9976281 C106.371509,19.9976281 110.78868,25.398482 113.093291,27.5996205 C115.397902,29.7999684 115.589953,30 118.717422,30 C121.844133,30 135,30 135,30 L135,19.9976281 C135,19.9976281 126.015357,19.9976281 122.36639,19.9976281 Z M112.955136,12.9965212 C110.320318,12.9965212 106.371509,12.9965212 106.371509,12.9965212 L106.371509,7.59487666 C106.371509,7.59487666 110.842575,7.59487666 112.955136,7.59487666 C115.973295,7.59487666 116.494793,12.9965212 112.955136,12.9965212 Z" id="Fill-4"></path>
                <polyline id="Fill-5" points="0 33 10.8854944 33 13.6436617 43.0002635 16.2048171 33 27.632289 33 30.5874683 43.0002635 33.5426476 33 43 33 34.3306954 63 25.6621695 63 21.8628758 48.7999578 17.5839008 63 8.71836291 63 0 33"></polyline>
                <path d="M62.1223128,33 L47.3054114,33 L39,63 L48.2431431,63 L49.7435137,58.7993359 L59.4966642,58.7993359 L60.9444033,63 L70,63 L62.1223128,33 Z M51.8065234,51.5981973 L54.9955523,40.5956673 L57.9962936,51.5981973 L51.8065234,51.5981973 Z" id="Fill-6"></path>
                <path d="M122.294886,41.9521139 C120.529813,41.9521139 118.608155,42.1604854 120.710429,44.149844 L124.380106,48.5602443 C126.7909,51.3123214 126.750591,52.4611171 126.750591,54.5416874 C126.750591,59.7148062 121.706529,62.8419521 118.372502,62.8419521 L95.1986539,63 C92.0057092,63 91.8088148,62.8010641 89.4553844,60.6127696 C87.1019539,58.4244751 82.5912122,53.0532068 82.5912122,53.0532068 L82.5912122,63 L72,63 L72,33.1643383 C72,33.1643383 89.1189586,33.1643383 92.8452234,33.1643383 C96.5714883,33.1643383 101.223312,37.2798731 101.223312,42.110948 C101.223312,46.9412366 98.3915986,51.6606558 95.1986539,51.6606558 C95.1986539,51.6606558 96.6024953,53.0933085 98.9559258,53.0933085 C101.309356,53.0933085 110.371149,53.1027442 110.371149,53.1027442 C110.950979,53.1027442 116.730682,54.0809111 112.865661,50.516578 C108.627006,46.6078421 108.1588,43.3541006 108.017718,40.7679344 C107.876636,38.1817681 110.079683,33 115.178782,33 L135,33 L135,41.9521139 L122.294886,41.9521139 Z M89.3143026,46.0896653 C86.6236711,46.0896653 82.5912122,46.0896653 82.5912122,46.0896653 L82.5912122,40.718397 C82.5912122,40.718397 87.1569913,40.718397 89.3143026,40.718397 C92.3963973,40.718397 92.9289423,46.0896653 89.3143026,46.0896653 Z" id="Fill-7"></path>
            </g>
        </g>
    </g>
</svg>